<mxfile host="app.diagrams.net" modified="2023-10-25T13:00:32.131Z" agent="Mozilla/5.0 (Windows NT 10.0; Win64; x64) AppleWebKit/537.36 (KHTML, like Gecko) Chrome/118.0.0.0 Safari/537.36 Edg/118.0.2088.61" etag="RC-45bIjQHhEAKgnsx2k" version="22.0.8" type="github">
  <diagram name="第 1 页" id="nqBYt8XRyRXi-smnCU_f">
    <mxGraphModel dx="417" dy="247" grid="0" gridSize="10" guides="1" tooltips="1" connect="1" arrows="1" fold="1" page="1" pageScale="1" pageWidth="827" pageHeight="1169" math="0" shadow="0">
      <root>
        <mxCell id="0" />
        <mxCell id="1" parent="0" />
        <mxCell id="IDTF2Mk35RaXu3-9uh4A-1" value="立体仓储区1" style="shape=offPageConnector;whiteSpace=wrap;html=1;direction=north;align=left;" vertex="1" parent="1">
          <mxGeometry x="140" y="240" width="80" height="40" as="geometry" />
        </mxCell>
        <mxCell id="IDTF2Mk35RaXu3-9uh4A-2" value="发货区3" style="shape=offPageConnector;whiteSpace=wrap;html=1;direction=north;align=left;" vertex="1" parent="1">
          <mxGeometry x="140" y="320" width="80" height="40" as="geometry" />
        </mxCell>
        <mxCell id="IDTF2Mk35RaXu3-9uh4A-3" value="行政办公区4" style="shape=offPageConnector;whiteSpace=wrap;html=1;direction=north;align=left;" vertex="1" parent="1">
          <mxGeometry x="140" y="360" width="80" height="40" as="geometry" />
        </mxCell>
        <mxCell id="IDTF2Mk35RaXu3-9uh4A-4" value="分拣区2" style="shape=offPageConnector;whiteSpace=wrap;html=1;direction=north;align=left;" vertex="1" parent="1">
          <mxGeometry x="140" y="280" width="80" height="40" as="geometry" />
        </mxCell>
        <mxCell id="IDTF2Mk35RaXu3-9uh4A-5" value="退货暂存区5" style="shape=offPageConnector;whiteSpace=wrap;html=1;direction=north;align=left;" vertex="1" parent="1">
          <mxGeometry x="140" y="400" width="80" height="40" as="geometry" />
        </mxCell>
        <mxCell id="IDTF2Mk35RaXu3-9uh4A-6" value="包装区6" style="shape=offPageConnector;whiteSpace=wrap;html=1;direction=north;align=left;" vertex="1" parent="1">
          <mxGeometry x="140" y="440" width="80" height="40" as="geometry" />
        </mxCell>
        <mxCell id="IDTF2Mk35RaXu3-9uh4A-19" value="E" style="rhombus;whiteSpace=wrap;html=1;" vertex="1" parent="1">
          <mxGeometry x="190" y="260" width="60" height="40" as="geometry" />
        </mxCell>
        <mxCell id="IDTF2Mk35RaXu3-9uh4A-20" value="A" style="rhombus;whiteSpace=wrap;html=1;" vertex="1" parent="1">
          <mxGeometry x="190" y="300" width="60" height="40" as="geometry" />
        </mxCell>
        <mxCell id="IDTF2Mk35RaXu3-9uh4A-21" value="U" style="rhombus;whiteSpace=wrap;html=1;" vertex="1" parent="1">
          <mxGeometry x="190" y="340" width="60" height="40" as="geometry" />
        </mxCell>
        <mxCell id="IDTF2Mk35RaXu3-9uh4A-22" value="U" style="rhombus;whiteSpace=wrap;html=1;" vertex="1" parent="1">
          <mxGeometry x="190" y="380" width="60" height="40" as="geometry" />
        </mxCell>
        <mxCell id="IDTF2Mk35RaXu3-9uh4A-23" value="U" style="rhombus;whiteSpace=wrap;html=1;" vertex="1" parent="1">
          <mxGeometry x="190" y="420" width="60" height="40" as="geometry" />
        </mxCell>
        <mxCell id="IDTF2Mk35RaXu3-9uh4A-25" value="A" style="rhombus;whiteSpace=wrap;html=1;" vertex="1" parent="1">
          <mxGeometry x="220" y="280" width="60" height="40" as="geometry" />
        </mxCell>
        <mxCell id="IDTF2Mk35RaXu3-9uh4A-26" value="U" style="rhombus;whiteSpace=wrap;html=1;" vertex="1" parent="1">
          <mxGeometry x="220" y="320" width="60" height="40" as="geometry" />
        </mxCell>
        <mxCell id="IDTF2Mk35RaXu3-9uh4A-27" value="U" style="rhombus;whiteSpace=wrap;html=1;" vertex="1" parent="1">
          <mxGeometry x="220" y="360" width="60" height="40" as="geometry" />
        </mxCell>
        <mxCell id="IDTF2Mk35RaXu3-9uh4A-28" value="U" style="rhombus;whiteSpace=wrap;html=1;" vertex="1" parent="1">
          <mxGeometry x="220" y="400" width="60" height="40" as="geometry" />
        </mxCell>
        <mxCell id="IDTF2Mk35RaXu3-9uh4A-31" value="U" style="rhombus;whiteSpace=wrap;html=1;" vertex="1" parent="1">
          <mxGeometry x="250" y="300" width="60" height="40" as="geometry" />
        </mxCell>
        <mxCell id="IDTF2Mk35RaXu3-9uh4A-33" value="A" style="rhombus;whiteSpace=wrap;html=1;" vertex="1" parent="1">
          <mxGeometry x="250" y="380" width="60" height="40" as="geometry" />
        </mxCell>
        <mxCell id="IDTF2Mk35RaXu3-9uh4A-37" value="O" style="rhombus;whiteSpace=wrap;html=1;" vertex="1" parent="1">
          <mxGeometry x="280" y="320" width="60" height="40" as="geometry" />
        </mxCell>
        <mxCell id="IDTF2Mk35RaXu3-9uh4A-38" value="E" style="rhombus;whiteSpace=wrap;html=1;" vertex="1" parent="1">
          <mxGeometry x="280" y="360" width="60" height="40" as="geometry" />
        </mxCell>
        <mxCell id="IDTF2Mk35RaXu3-9uh4A-43" value="U" style="rhombus;whiteSpace=wrap;html=1;" vertex="1" parent="1">
          <mxGeometry x="310" y="340" width="60" height="40" as="geometry" />
        </mxCell>
        <mxCell id="IDTF2Mk35RaXu3-9uh4A-44" value="立体仓储区1" style="shape=offPageConnector;whiteSpace=wrap;html=1;direction=north;align=left;" vertex="1" parent="1">
          <mxGeometry x="140" y="540" width="80" height="40" as="geometry" />
        </mxCell>
        <mxCell id="IDTF2Mk35RaXu3-9uh4A-45" value="发货区3" style="shape=offPageConnector;whiteSpace=wrap;html=1;direction=north;align=left;" vertex="1" parent="1">
          <mxGeometry x="140" y="620" width="80" height="40" as="geometry" />
        </mxCell>
        <mxCell id="IDTF2Mk35RaXu3-9uh4A-46" value="行政办公区4" style="shape=offPageConnector;whiteSpace=wrap;html=1;direction=north;align=left;" vertex="1" parent="1">
          <mxGeometry x="140" y="660" width="80" height="40" as="geometry" />
        </mxCell>
        <mxCell id="IDTF2Mk35RaXu3-9uh4A-47" value="分拣区2" style="shape=offPageConnector;whiteSpace=wrap;html=1;direction=north;align=left;" vertex="1" parent="1">
          <mxGeometry x="140" y="580" width="80" height="40" as="geometry" />
        </mxCell>
        <mxCell id="IDTF2Mk35RaXu3-9uh4A-48" value="退货暂存区5" style="shape=offPageConnector;whiteSpace=wrap;html=1;direction=north;align=left;" vertex="1" parent="1">
          <mxGeometry x="140" y="700" width="80" height="40" as="geometry" />
        </mxCell>
        <mxCell id="IDTF2Mk35RaXu3-9uh4A-49" value="包装区6" style="shape=offPageConnector;whiteSpace=wrap;html=1;direction=north;align=left;" vertex="1" parent="1">
          <mxGeometry x="140" y="740" width="80" height="40" as="geometry" />
        </mxCell>
        <mxCell id="IDTF2Mk35RaXu3-9uh4A-50" value="A" style="rhombus;whiteSpace=wrap;html=1;" vertex="1" parent="1">
          <mxGeometry x="190" y="560" width="60" height="40" as="geometry" />
        </mxCell>
        <mxCell id="IDTF2Mk35RaXu3-9uh4A-51" value="A" style="rhombus;whiteSpace=wrap;html=1;" vertex="1" parent="1">
          <mxGeometry x="190" y="600" width="60" height="40" as="geometry" />
        </mxCell>
        <mxCell id="IDTF2Mk35RaXu3-9uh4A-52" value="U" style="rhombus;whiteSpace=wrap;html=1;" vertex="1" parent="1">
          <mxGeometry x="190" y="640" width="60" height="40" as="geometry" />
        </mxCell>
        <mxCell id="IDTF2Mk35RaXu3-9uh4A-53" value="U" style="rhombus;whiteSpace=wrap;html=1;" vertex="1" parent="1">
          <mxGeometry x="190" y="680" width="60" height="40" as="geometry" />
        </mxCell>
        <mxCell id="IDTF2Mk35RaXu3-9uh4A-54" value="U" style="rhombus;whiteSpace=wrap;html=1;" vertex="1" parent="1">
          <mxGeometry x="190" y="720" width="60" height="40" as="geometry" />
        </mxCell>
        <mxCell id="IDTF2Mk35RaXu3-9uh4A-55" value="I" style="rhombus;whiteSpace=wrap;html=1;" vertex="1" parent="1">
          <mxGeometry x="220" y="580" width="60" height="40" as="geometry" />
        </mxCell>
        <mxCell id="IDTF2Mk35RaXu3-9uh4A-56" value="E" style="rhombus;whiteSpace=wrap;html=1;" vertex="1" parent="1">
          <mxGeometry x="220" y="620" width="60" height="40" as="geometry" />
        </mxCell>
        <mxCell id="IDTF2Mk35RaXu3-9uh4A-57" value="U" style="rhombus;whiteSpace=wrap;html=1;" vertex="1" parent="1">
          <mxGeometry x="220" y="660" width="60" height="40" as="geometry" />
        </mxCell>
        <mxCell id="IDTF2Mk35RaXu3-9uh4A-58" value="I" style="rhombus;whiteSpace=wrap;html=1;" vertex="1" parent="1">
          <mxGeometry x="220" y="700" width="60" height="40" as="geometry" />
        </mxCell>
        <mxCell id="IDTF2Mk35RaXu3-9uh4A-59" value="I" style="rhombus;whiteSpace=wrap;html=1;" vertex="1" parent="1">
          <mxGeometry x="250" y="600" width="60" height="40" as="geometry" />
        </mxCell>
        <mxCell id="IDTF2Mk35RaXu3-9uh4A-60" value="E" style="rhombus;whiteSpace=wrap;html=1;" vertex="1" parent="1">
          <mxGeometry x="250" y="680" width="60" height="40" as="geometry" />
        </mxCell>
        <mxCell id="IDTF2Mk35RaXu3-9uh4A-61" value="O" style="rhombus;whiteSpace=wrap;html=1;" vertex="1" parent="1">
          <mxGeometry x="280" y="620" width="60" height="40" as="geometry" />
        </mxCell>
        <mxCell id="IDTF2Mk35RaXu3-9uh4A-62" value="A" style="rhombus;whiteSpace=wrap;html=1;" vertex="1" parent="1">
          <mxGeometry x="280" y="660" width="60" height="40" as="geometry" />
        </mxCell>
        <mxCell id="IDTF2Mk35RaXu3-9uh4A-63" value="I" style="rhombus;whiteSpace=wrap;html=1;" vertex="1" parent="1">
          <mxGeometry x="310" y="640" width="60" height="40" as="geometry" />
        </mxCell>
        <mxCell id="IDTF2Mk35RaXu3-9uh4A-64" value="U" style="rhombus;whiteSpace=wrap;html=1;" vertex="1" parent="1">
          <mxGeometry x="250" y="340" width="60" height="40" as="geometry" />
        </mxCell>
        <mxCell id="IDTF2Mk35RaXu3-9uh4A-65" value="O" style="rhombus;whiteSpace=wrap;html=1;" vertex="1" parent="1">
          <mxGeometry x="250" y="640" width="60" height="40" as="geometry" />
        </mxCell>
        <mxCell id="IDTF2Mk35RaXu3-9uh4A-129" value="立体仓储区1" style="shape=offPageConnector;whiteSpace=wrap;html=1;direction=north;align=left;" vertex="1" parent="1">
          <mxGeometry x="402" y="285" width="80" height="40" as="geometry" />
        </mxCell>
        <mxCell id="IDTF2Mk35RaXu3-9uh4A-130" value="发货区3" style="shape=offPageConnector;whiteSpace=wrap;html=1;direction=north;align=left;" vertex="1" parent="1">
          <mxGeometry x="402" y="365" width="80" height="40" as="geometry" />
        </mxCell>
        <mxCell id="IDTF2Mk35RaXu3-9uh4A-131" value="行政办公区4" style="shape=offPageConnector;whiteSpace=wrap;html=1;direction=north;align=left;" vertex="1" parent="1">
          <mxGeometry x="402" y="405" width="80" height="40" as="geometry" />
        </mxCell>
        <mxCell id="IDTF2Mk35RaXu3-9uh4A-132" value="分拣区2" style="shape=offPageConnector;whiteSpace=wrap;html=1;direction=north;align=left;" vertex="1" parent="1">
          <mxGeometry x="402" y="325" width="80" height="40" as="geometry" />
        </mxCell>
        <mxCell id="IDTF2Mk35RaXu3-9uh4A-133" value="退货暂存区5" style="shape=offPageConnector;whiteSpace=wrap;html=1;direction=north;align=left;" vertex="1" parent="1">
          <mxGeometry x="402" y="445" width="80" height="40" as="geometry" />
        </mxCell>
        <mxCell id="IDTF2Mk35RaXu3-9uh4A-134" value="包装区6" style="shape=offPageConnector;whiteSpace=wrap;html=1;direction=north;align=left;" vertex="1" parent="1">
          <mxGeometry x="402" y="485" width="80" height="40" as="geometry" />
        </mxCell>
        <mxCell id="IDTF2Mk35RaXu3-9uh4A-135" value="A" style="rhombus;whiteSpace=wrap;html=1;" vertex="1" parent="1">
          <mxGeometry x="452" y="305" width="60" height="40" as="geometry" />
        </mxCell>
        <mxCell id="IDTF2Mk35RaXu3-9uh4A-136" value="A" style="rhombus;whiteSpace=wrap;html=1;" vertex="1" parent="1">
          <mxGeometry x="452" y="345" width="60" height="40" as="geometry" />
        </mxCell>
        <mxCell id="IDTF2Mk35RaXu3-9uh4A-137" value="U" style="rhombus;whiteSpace=wrap;html=1;" vertex="1" parent="1">
          <mxGeometry x="452" y="385" width="60" height="40" as="geometry" />
        </mxCell>
        <mxCell id="IDTF2Mk35RaXu3-9uh4A-138" value="U" style="rhombus;whiteSpace=wrap;html=1;" vertex="1" parent="1">
          <mxGeometry x="452" y="425" width="60" height="40" as="geometry" />
        </mxCell>
        <mxCell id="IDTF2Mk35RaXu3-9uh4A-139" value="U" style="rhombus;whiteSpace=wrap;html=1;" vertex="1" parent="1">
          <mxGeometry x="452" y="465" width="60" height="40" as="geometry" />
        </mxCell>
        <mxCell id="IDTF2Mk35RaXu3-9uh4A-140" value="A" style="rhombus;whiteSpace=wrap;html=1;" vertex="1" parent="1">
          <mxGeometry x="482" y="325" width="60" height="40" as="geometry" />
        </mxCell>
        <mxCell id="IDTF2Mk35RaXu3-9uh4A-141" value="E" style="rhombus;whiteSpace=wrap;html=1;" vertex="1" parent="1">
          <mxGeometry x="482" y="365" width="60" height="40" as="geometry" />
        </mxCell>
        <mxCell id="IDTF2Mk35RaXu3-9uh4A-142" value="U" style="rhombus;whiteSpace=wrap;html=1;" vertex="1" parent="1">
          <mxGeometry x="482" y="405" width="60" height="40" as="geometry" />
        </mxCell>
        <mxCell id="IDTF2Mk35RaXu3-9uh4A-143" value="I" style="rhombus;whiteSpace=wrap;html=1;" vertex="1" parent="1">
          <mxGeometry x="482" y="445" width="60" height="40" as="geometry" />
        </mxCell>
        <mxCell id="IDTF2Mk35RaXu3-9uh4A-144" value="I" style="rhombus;whiteSpace=wrap;html=1;" vertex="1" parent="1">
          <mxGeometry x="512" y="345" width="60" height="40" as="geometry" />
        </mxCell>
        <mxCell id="IDTF2Mk35RaXu3-9uh4A-145" value="A" style="rhombus;whiteSpace=wrap;html=1;" vertex="1" parent="1">
          <mxGeometry x="512" y="425" width="60" height="40" as="geometry" />
        </mxCell>
        <mxCell id="IDTF2Mk35RaXu3-9uh4A-146" value="I" style="rhombus;whiteSpace=wrap;html=1;" vertex="1" parent="1">
          <mxGeometry x="542" y="365" width="60" height="40" as="geometry" />
        </mxCell>
        <mxCell id="IDTF2Mk35RaXu3-9uh4A-147" value="A" style="rhombus;whiteSpace=wrap;html=1;" vertex="1" parent="1">
          <mxGeometry x="542" y="405" width="60" height="40" as="geometry" />
        </mxCell>
        <mxCell id="IDTF2Mk35RaXu3-9uh4A-148" value="I" style="rhombus;whiteSpace=wrap;html=1;" vertex="1" parent="1">
          <mxGeometry x="572" y="385" width="60" height="40" as="geometry" />
        </mxCell>
        <mxCell id="IDTF2Mk35RaXu3-9uh4A-149" value="O" style="text;html=1;align=center;verticalAlign=middle;resizable=0;points=[];autosize=1;strokeColor=none;fillColor=none;" vertex="1" parent="1">
          <mxGeometry x="528" y="391" width="27" height="26" as="geometry" />
        </mxCell>
        <mxCell id="IDTF2Mk35RaXu3-9uh4A-150" value="立体仓储区1" style="rounded=0;whiteSpace=wrap;html=1;" vertex="1" parent="1">
          <mxGeometry x="476" y="603" width="120" height="60" as="geometry" />
        </mxCell>
        <mxCell id="IDTF2Mk35RaXu3-9uh4A-151" value="分拣区2" style="rounded=0;whiteSpace=wrap;html=1;" vertex="1" parent="1">
          <mxGeometry x="596" y="603" width="120" height="60" as="geometry" />
        </mxCell>
        <mxCell id="IDTF2Mk35RaXu3-9uh4A-152" value="发货区3" style="rounded=0;whiteSpace=wrap;html=1;" vertex="1" parent="1">
          <mxGeometry x="531" y="543" width="120" height="60" as="geometry" />
        </mxCell>
        <mxCell id="IDTF2Mk35RaXu3-9uh4A-153" value="包装区6" style="rounded=0;whiteSpace=wrap;html=1;" vertex="1" parent="1">
          <mxGeometry x="651" y="543" width="120" height="60" as="geometry" />
        </mxCell>
        <mxCell id="IDTF2Mk35RaXu3-9uh4A-154" value="行政办公区4" style="rounded=0;whiteSpace=wrap;html=1;" vertex="1" parent="1">
          <mxGeometry x="537" y="663" width="120" height="60" as="geometry" />
        </mxCell>
        <mxCell id="IDTF2Mk35RaXu3-9uh4A-155" value="退货暂存区5" style="rounded=0;whiteSpace=wrap;html=1;" vertex="1" parent="1">
          <mxGeometry x="417" y="663" width="120" height="60" as="geometry" />
        </mxCell>
      </root>
    </mxGraphModel>
  </diagram>
</mxfile>
